<svg width="163" height="67" viewBox="0 0 163 67" fill="none" xmlns="http://www.w3.org/2000/svg">
<g clip-path="url(#clip0_4_2)">
<path d="M7.31676 24.7753H0V19.5852H7.31676V12.5205C7.31676 8.30351 8.18947 5.16223 9.93489 3.09671C11.6803 1.03119 14.6834 -0.00104769 18.9441 7.97937e-07C19.663 7.97937e-07 20.4154 0.0235918 21.2059 0.0660556C22.0648 0.122105 22.9166 0.255822 23.7509 0.46553L23.0335 5.79395C22.4519 5.58091 21.8511 5.42293 21.2393 5.32213C20.6222 5.23098 19.999 5.18681 19.3751 5.19002C18.179 5.19002 17.2246 5.35673 16.512 5.69015C15.8226 5.9978 15.2369 6.4945 14.8244 7.12134C14.3954 7.79783 14.1238 8.56009 14.0291 9.35304C13.9022 10.3356 13.8422 11.3255 13.8494 12.3161V19.5805H21.5288V24.7705H13.7778V51.1453H7.31676V24.7753Z" fill="#662D91"/>
<path d="M27.6987 8.2584C27.6987 7.05997 28.1653 6.02774 29.0984 5.16168C30.0048 4.32487 31.1986 3.85944 32.4387 3.85944C33.6788 3.85944 34.8726 4.32487 35.779 5.16168C36.7111 6.02669 37.1776 7.05892 37.1787 8.2584C37.1798 9.45787 36.7111 10.4901 35.7726 11.3551C34.8662 12.1919 33.6724 12.6574 32.4323 12.6574C31.1923 12.6574 29.9984 12.1919 29.0921 11.3551C28.1642 10.4953 27.6998 9.46311 27.6987 8.2584ZM29.2066 19.5821H35.6644V51.15H29.2066V19.5821Z" fill="#662D91"/>
<path d="M70.7547 37.5632C70.739 38.8799 71.073 40.1776 71.7234 41.3267C72.3636 42.4535 73.2295 43.4393 74.2683 44.2237C75.3701 45.0491 76.6077 45.6801 77.9267 46.0889C79.3182 46.5333 80.7718 46.7578 82.2341 46.7542C84.2488 46.7542 85.9985 46.3201 87.4831 45.452C89.0258 44.5362 90.4076 43.3782 91.5741 42.0234L96.4525 45.4834C92.8651 49.7896 87.842 51.9427 81.3831 51.9427C78.7024 51.9427 76.2746 51.5233 74.0997 50.6845C72.029 49.9101 70.1443 48.7172 68.566 47.182C67.0519 45.6835 65.8671 43.8919 65.0858 41.9196C64.2587 39.8302 63.8446 37.6034 63.8658 35.3598C63.844 33.1579 64.2749 30.9745 65.1324 28.9423C65.9898 26.91 67.256 25.0713 68.8539 23.5375C70.4573 22.0193 72.3496 20.831 74.421 20.0413C76.663 19.1843 79.0495 18.7573 81.4531 18.7832C84.4678 18.7832 87.0154 19.2718 89.0959 20.2489C91.0218 21.1155 92.7362 22.3824 94.1221 23.9633C95.508 25.5443 96.5328 27.4021 97.1269 29.4101C97.7217 31.365 98.024 33.3954 98.024 35.4368V37.5679L70.7547 37.5632ZM91.1414 32.7679C91.1094 31.5191 90.8791 30.2831 90.4591 29.105C90.0674 28.0204 89.4435 27.0322 88.6299 26.208C87.7642 25.3539 86.7218 24.695 85.5743 24.2767C84.3549 23.8091 82.9318 23.5758 81.3052 23.5768C79.8159 23.5597 78.3389 23.8433 76.9644 24.4104C75.7221 24.9154 74.5885 25.6499 73.6241 26.5745C72.7413 27.426 72.0238 28.4302 71.5071 29.5375C71.0225 30.5477 70.7652 31.6499 70.7531 32.7679H91.1414Z" fill="#662D91"/>
<path d="M123.858 27.5071C123.062 26.5948 122.1 25.8379 121.022 25.2754C119.897 24.6767 118.522 24.3773 116.896 24.3773C115.364 24.3773 114.039 24.6772 112.92 25.277C111.801 25.8767 111.239 26.7537 111.234 27.9081C111.218 28.3327 111.297 28.7554 111.464 29.1467C111.632 29.5379 111.884 29.8882 112.203 30.1729C112.879 30.7688 113.657 31.2421 114.499 31.571C115.413 31.9353 116.363 32.2031 117.334 32.37C118.339 32.5472 119.2 32.7044 119.917 32.8418C121.244 33.135 122.551 33.5132 123.828 33.9742C124.97 34.3746 126.037 34.9592 126.986 35.7042C127.865 36.4067 128.576 37.2936 129.066 38.3008C129.569 39.323 129.82 40.5665 129.82 42.0313C129.82 43.8064 129.413 45.3267 128.6 46.5922C127.797 47.847 126.718 48.9062 125.443 49.6905C124.084 50.5155 122.59 51.1009 121.029 51.4205C119.391 51.7733 117.719 51.9516 116.042 51.9521C113.219 51.9521 110.743 51.5526 108.614 50.7537C106.485 49.9547 104.584 48.4884 102.912 46.3547L107.784 42.6211C108.855 43.6125 110.034 44.4834 111.299 45.2176C112.591 45.9736 114.17 46.3511 116.036 46.35C116.866 46.3486 117.695 46.2707 118.511 46.1172C119.286 45.9829 120.036 45.7359 120.738 45.3843C121.349 45.0804 121.887 44.6516 122.317 44.1262C122.72 43.6244 122.935 43.0005 122.926 42.36C122.94 41.9515 122.867 41.5447 122.713 41.1656C122.558 40.7865 122.325 40.4434 122.029 40.1582C121.41 39.5674 120.679 39.1034 119.877 38.793C119.018 38.4543 118.132 38.1881 117.227 37.9972C116.295 37.7959 115.47 37.6292 114.752 37.4971C113.363 37.1825 112.048 36.8271 110.806 36.4308C109.63 36.0654 108.517 35.5267 107.504 34.8329C106.553 34.1747 105.767 33.3088 105.209 32.3023C104.632 31.2822 104.343 30.0166 104.343 28.5058C104.343 26.8638 104.715 25.4321 105.457 24.2106C106.194 22.9937 107.2 21.9575 108.399 21.18C109.676 20.355 111.083 19.7469 112.562 19.3808C114.097 18.9838 115.676 18.7824 117.262 18.7816C119.517 18.7731 121.753 19.1773 123.858 19.9737C125.921 20.7416 127.682 22.142 128.882 23.97L123.858 27.5071Z" fill="#662D91"/>
<path d="M155.861 24.7753H146.606V39.095C146.606 39.9836 146.628 40.8612 146.677 41.7262C146.709 42.5294 146.891 43.3197 147.215 44.057C147.518 44.738 148.016 45.3168 148.646 45.7225C149.292 46.1419 150.237 46.3516 151.481 46.3516C152.275 46.3494 153.067 46.2826 153.849 46.1519C154.627 46.031 155.38 45.7833 156.076 45.419V50.8811C155.309 51.2805 154.316 51.5579 153.097 51.713C152.158 51.8467 151.211 51.9244 150.262 51.9458C147.775 51.9458 145.85 51.6239 144.487 50.9801C143.124 50.3364 142.12 49.5039 141.473 48.4826C140.821 47.4452 140.427 46.2696 140.324 45.0525C140.206 43.788 140.146 42.5115 140.145 41.2229V24.7753H132.683V19.5853H140.146V10.7229H146.606V19.5805H155.861V24.7753Z" fill="#662D91"/>
<path d="M41.9028 18.5221C43.4823 17.9889 46.4185 19.3949 46.8018 20.3732C46.9927 20.8623 46.5951 21.3656 46.1083 22.9131C44.4891 28.1629 43.2214 36.338 43.5729 43.3209C46.6603 32.6877 52.8414 19.8101 58.5468 17.8835C60.4762 17.2324 63.2375 17.6838 64.1633 20.046C65.4087 23.2214 62.8001 28.9902 64.2046 32.5744C64.9713 34.5293 66.3678 34.7967 68.0348 34.2337C71.9842 32.9 74.7757 26.3307 75.5567 23.7624C75.7969 22.8502 76.0339 22.6804 76.2916 22.5923C76.3595 22.5653 76.4321 22.5521 76.5053 22.5533C76.5784 22.5546 76.6506 22.5704 76.7175 22.5997C76.7844 22.629 76.8446 22.6713 76.8947 22.7241C76.9447 22.7768 76.9836 22.839 77.0089 22.9068C77.1362 23.2324 76.9453 23.7593 76.8499 24.2547C75.8764 28.3642 72.1831 36.4371 66.7432 38.274C63.2327 39.4583 59.6809 38.2599 58.4721 35.1647C56.8815 31.0914 59.6507 23.9747 59.0129 22.347C58.7886 21.7761 58.2176 21.5983 57.6959 21.7761C55.4134 22.5467 48.227 31.3367 44.8613 49.6276C44.7341 50.3164 44.5352 50.5712 44.0962 50.7159C43.1307 51.0415 40.1706 50.8417 39.2131 48.3993C37.2201 43.3445 37.3394 20.0633 41.9028 18.5221Z" fill="#8CC63F"/>
<path d="M32.3035 13.0332C35.1919 13.0332 37.5334 10.6716 37.5334 7.75828C37.5334 4.84501 35.1919 2.48334 32.3035 2.48334C29.4151 2.48334 27.0736 4.84501 27.0736 7.75828C27.0736 10.6716 29.4151 13.0332 32.3035 13.0332Z" fill="#8CC63F"/>
<path d="M7.23247 54.739H11.5716C12.0299 54.7377 12.4871 54.782 12.9364 54.8711C13.4259 55.0156 13.8794 55.2599 14.2677 55.5883C14.6705 55.8933 14.9871 56.2957 15.1871 56.7568C15.4435 57.2976 15.5698 57.8897 15.5561 58.4868C15.5543 59.3919 15.2209 60.2658 14.6176 60.9466C13.9814 61.7256 13.0445 62.1261 11.807 62.1481H9.04575V66.8946H7.23247V54.739ZM9.04575 60.4197H11.7355C12.4099 60.4092 12.9173 60.1969 13.2577 59.7827C13.572 59.4048 13.7435 58.9305 13.7428 58.4412C13.7546 58.0856 13.6873 57.7318 13.5456 57.4048C13.413 57.1577 13.2136 56.9519 12.9698 56.8103C12.5829 56.5657 12.129 56.4454 11.6702 56.4658H9.04575V60.4197Z" fill="#474747"/>
<path d="M26.4676 64.1801H21.9264L21.0071 66.8993H19.0872L23.4391 54.739H24.9581L29.3084 66.8993H27.3997L26.4676 64.1801ZM25.9491 62.546L24.2169 57.2254H24.1851L22.4529 62.546H25.9491Z" fill="#474747"/>
<path d="M35.0171 54.739H36.8288V66.8993H35.0171V54.739Z" fill="#474747"/>
<path d="M43.5825 54.739H45.2924L50.7131 63.389H50.7465V54.739H52.5582V66.8993H50.8483L45.4403 58.2493H45.4069V66.8993H43.5825V54.739Z" fill="#474747"/>
<path d="M61.596 56.373H58.3162V54.739H66.6923V56.373H63.4093V66.8993H61.596V56.373Z" fill="#474747"/>
<path d="M72.3389 54.739H79.9865V56.469H74.1522V59.9526H79.1324V61.5851H74.1522V65.1662H79.9865V66.8962H72.3389V54.739Z" fill="#474747"/>
<path d="M86.0913 54.739H90.7692C91.766 54.739 92.5799 55.0058 93.2108 55.5395C93.969 56.1455 94.3645 57.01 94.3974 58.1329C94.3751 59.7843 93.6047 60.9077 92.0862 61.5033L94.8571 66.8993H92.7034L90.2252 61.7093H87.9046V66.8993H86.0913V54.739ZM87.9046 60.0689H90.6531C91.3339 60.0585 91.8445 59.8577 92.1849 59.4666C92.5203 59.1011 92.6998 58.6215 92.6859 58.1282C92.6764 57.4928 92.4765 57.033 92.0862 56.7489C91.7777 56.4973 91.3339 56.373 90.7517 56.373H87.9046V60.0689Z" fill="#474747"/>
<path d="M100.924 63.9536C101.873 64.7494 103.081 65.18 104.326 65.1662C105.882 65.1442 106.67 64.5791 106.693 63.4708C106.704 62.5639 106.184 62.0187 105.132 61.8352C104.655 61.7675 104.122 61.6936 103.542 61.6087C102.511 61.4367 101.728 61.0504 101.192 60.4496C100.638 59.827 100.344 59.0201 100.367 58.1911C100.367 57.128 100.714 56.2708 101.407 55.6197C102.081 54.9749 103.035 54.6467 104.27 54.6352C105.666 54.638 107.025 55.0785 108.151 55.8934L107.144 57.4048C106.271 56.8143 105.242 56.4901 104.184 56.4721C103.684 56.4548 103.192 56.605 102.788 56.8984C102.399 57.194 102.199 57.6339 102.188 58.2179C102.191 58.575 102.335 58.9168 102.591 59.1694C102.859 59.4588 103.289 59.659 103.881 59.7702C104.208 59.8247 104.657 59.8886 105.226 59.962C106.349 60.1183 107.179 60.5272 107.715 61.1888C108.242 61.8299 108.524 62.6339 108.511 63.4598C108.45 65.7874 107.05 66.9675 104.31 67C102.627 67.0358 100.992 66.4434 99.7307 65.3408L100.924 63.9536Z" fill="#474747"/>
<path d="M123.092 54.739H124.905V66.8993H123.092V54.739Z" fill="#474747"/>
<path d="M131.665 54.739H133.373L138.796 63.389H138.828V54.739H140.641V66.8993H138.923L133.515 58.2493H133.483V66.8993H131.67L131.665 54.739Z" fill="#474747"/>
<path d="M155.72 63.5022C155.456 64.6293 154.955 65.4954 154.217 66.1004C153.449 66.7022 152.492 67.0204 151.513 67C150.571 66.978 149.786 66.7447 149.157 66.3001C148.571 65.9307 148.091 65.419 147.762 64.8139C147.675 64.6314 147.595 64.4553 147.523 64.2886C147.449 64.0777 147.396 63.8601 147.364 63.639C147.282 63.1494 147.24 62.2094 147.24 60.8191C147.24 59.4068 147.282 58.4632 147.364 57.9882C147.426 57.5809 147.563 57.1881 147.767 56.8291C148.098 56.2213 148.577 55.7051 149.162 55.3271C149.792 54.8815 150.577 54.6535 151.519 54.643C152.674 54.6535 153.615 55.0005 154.342 55.6842C155.066 56.3673 155.549 57.262 155.72 58.2367H153.795C153.651 57.7506 153.372 57.3145 152.989 56.9785C152.57 56.6451 152.047 56.4651 151.51 56.4689C151.127 56.4691 150.749 56.558 150.407 56.7285C150.112 56.8812 149.853 57.0959 149.65 57.3575C149.403 57.6454 149.241 57.9955 149.182 58.3688C149.093 58.8029 149.049 59.6191 149.05 60.8176C149.051 62.016 149.096 62.827 149.182 63.2506C149.238 63.6294 149.4 63.9853 149.65 64.2776C149.851 64.536 150.111 64.7448 150.407 64.8878C150.742 65.0792 151.123 65.175 151.51 65.1646C152.531 65.1646 153.293 64.6099 153.797 63.5006L155.72 63.5022Z" fill="#474747"/>
<path d="M161.287 65.1662H162.998V66.8962H161.287V65.1662Z" fill="#474747"/>
</g>
<defs>
<clipPath id="clip0_4_2">
<rect width="163" height="67" fill="white"/>
</clipPath>
</defs>
</svg>
